<?xml version="1.0" encoding="iso-8859-1"?>
<!-- Uploaded to: SVG Repo, www.svgrepo.com, Generator: SVG Repo Mixer Tools -->
<svg fill="#000000" height="800px" width="800px" version="1.1" id="Layer_1" xmlns="http://www.w3.org/2000/svg" xmlns:xlink="http://www.w3.org/1999/xlink" 
	 viewBox="0 0 512 512" xml:space="preserve">
<g>
	<g>
		<path d="M415.037,318.053c-20.604,0-40.15,6.522-56.927,18.929l-162.008-81.006l162.007-81.033
			c16.777,12.424,36.322,18.952,56.929,18.952c53.465,0,96.962-43.509,96.962-96.988C512,43.472,468.503,0,415.038,0
			c-53.09,0-96.348,42.889-96.928,95.829l-164.243,82.092c-16.833-12.393-36.372-18.907-56.909-18.907
			C43.496,159.014,0,202.521,0,256c0,53.435,43.496,96.907,96.961,96.907c20.534,0,40.074-6.506,56.904-18.884l164.247,82.089
			C318.701,469.089,361.955,512,415.038,512c25.903,0,50.254-10.086,68.564-28.399c18.313-18.316,28.398-42.673,28.397-68.588
			C511.999,361.55,468.502,318.053,415.037,318.053z M469.177,469.179c-14.457,14.459-33.685,22.423-54.139,22.423
			c-42.2,0-76.534-34.357-76.534-76.588c0-0.331,0.078-0.924,0.163-1.551c0.103-0.763,0.231-1.714,0.297-2.775
			c0.258-4.089-1.954-7.934-5.619-9.766l-176.139-88.033c-1.445-0.722-3.007-1.076-4.558-1.076c-2.354,0-4.687,0.814-6.563,2.391
			c-14.253,11.976-31.24,18.305-49.124,18.305c-42.216,0-76.561-34.322-76.561-76.508c0-42.23,34.345-76.588,76.561-76.588
			c17.882,0,34.867,6.338,49.119,18.328c3.114,2.62,7.486,3.136,11.125,1.319l176.139-88.039c3.665-1.833,5.878-5.68,5.619-9.769
			c-0.066-1.048-0.188-1.957-0.294-2.758c-0.086-0.643-0.166-1.249-0.166-1.589c0.002-42.186,34.336-76.506,76.536-76.506
			c42.218,0,76.563,34.321,76.562,76.507c0,42.232-34.346,76.59-76.563,76.59c-17.944,0-34.921-6.349-49.095-18.36
			c-3.114-2.638-7.503-3.166-11.156-1.34l-176.134,88.1c-3.651,1.826-5.862,5.653-5.619,9.728l-0.001,8.697
			c-0.246,4.079,1.965,7.911,5.62,9.738l176.134,88.069c3.649,1.826,8.035,1.297,11.15-1.338
			c14.175-11.996,31.153-18.337,49.1-18.337c42.218,0,76.563,34.345,76.563,76.562C491.6,435.48,483.637,454.716,469.177,469.179z"
			/>
	</g>
</g>
<g>
	<g>
		<path d="M96.892,190.725c-2.012,0-4.042,0.093-6.034,0.275c-5.609,0.516-9.737,5.481-9.222,11.09
			c0.487,5.292,4.932,9.267,10.144,9.267c0.313,0,0.628-0.014,0.946-0.043c1.373-0.126,2.774-0.191,4.165-0.191
			c5.633,0,10.199-4.567,10.199-10.199S102.525,190.725,96.892,190.725z"/>
	</g>
</g>
<g>
	<g>
		<path d="M66.582,208.895c-3.86-4.103-10.315-4.298-14.417-0.438C39.107,220.746,31.618,238.075,31.618,256
			c0,5.632,4.566,10.199,10.199,10.199c5.633,0,10.199-4.567,10.199-10.199c0-12.505,5.018-24.114,14.129-32.687
			C70.247,219.452,70.443,212.998,66.582,208.895z"/>
	</g>
</g>
</svg>